{"title":"Waking the Dead S01","uid":15686550,"size":4211834220,"categoryP":"video","categoryS":"tv_shows","magnet":"?xt=urn:btih:8add8223d4d1bbcc6603fae4981907b56c499c49&amp;dn=Waking+the+Dead+S01&amp;tr=udp%3A%2F%2Ftracker.leechers-paradise.org%3A6969&amp;tr=udp%3A%2F%2Fzer0day.ch%3A1337&amp;tr=udp%3A%2F%2Fopen.demonii.com%3A1337&amp;tr=udp%3A%2F%2Ftracker.coppersurfer.tk%3A6969&amp;tr=udp%3A%2F%2Fexodus.desync.com%3A6969","seeders":3,"leechers":1,"uploader":"RedBaron58","files":10,"time":1472352145,"description":"Waking the Dead S01 DVDrip x264 mp4\r\n  \nhttp://www.imdb.com/title/tt0259733/\r\n\r\nThank you for your kind comments and feedback on my other torrents, your feedback is welcome.\r\n\r\nAbout the Series:\r\nDetective Superintendent Peter Boyd is the leader of a police team which investigates \r\nunsolved murders using modern technology.\r\nStarring  Trevor Eve, Sue Johnston and Wil Johnson.  \r\n\r\nEpisode 1 &amp; 2 &quot;Waking The Dead&quot; (The Pilot)\r\nBoyd decides to have a second attempt at cracking the case of Alice Miller, a young girl who \r\nwas raped and murdered five years ago\r\n\r\nEpisode 3 &amp; 4 &quot;Burn Out&quot;\r\nWhen a young woman, Marina, sets alight an abandoned car in the middle of a busy street, \r\nand takes photographs of it as it burns\r\n\r\nEpisode 5 &amp; 6 &quot;Blind Beggar&quot;\r\nWorkmen renovating the crypt of a Catholic church are alarmed when they discover the \r\nskeletal remains of a young man buried within the concrete.\r\n\r\nEpisode 7 &amp; 8 &quot;A Simple Sacrifice&quot;\r\nNew evidence comes to light in the case of Annie Keel, a woman who was tried and \r\nconvicted twenty-five years ago of a double murder.\r\n\r\nEpisode 9 &amp; 10 &quot;Every Breath You Take&quot;\r\nWhen the corpse of well-known police woman Debbie Britton, who disappeared a year \r\nearlier, is found floating in a golf bag in the River Thames\r\n\r\nTechnical: (All episodes are encoded to the same settings)\r\n\r\nGeneral\r\nComplete name                            : I:Waking the Dead S01Waking The Dead S01E01 Pilot pt1 x264 RB58.mp4\r\nFormat                                   : MPEG-4\r\nFormat profile                           : Base Media / Version 2\r\nCodec ID                                 : mp42\r\nFile size                                : 364 MiB\r\nDuration                                 : 50mn 52s\r\nOverall bit rate mode                    : Variable\r\nOverall bit rate                         : 1 000 Kbps\r\nEncoded date                             : UTC 2016-08-18 18:11:51\r\nTagged date                              : UTC 2016-08-18 18:13:39\r\nWriting application                      : HandBrake 0.9.8 2012071700\r\n\r\nVideo\r\nID                                       : 1\r\nFormat                                   : AVC\r\nFormat/Info                              : Advanced Video Codec\r\nFormat profile                           :   \r\nFormat settings, CABAC                   : Yes\r\nFormat settings, ReFrames                : 4 frames\r\nCodec ID                                 : avc1\r\nCodec ID/Info                            : Advanced Video Coding\r\nDuration                                 : 50mn 52s\r\nBit rate                                 : 900 Kbps\r\nWidth                                    : 716 pixels\r\nHeight                                   : 572 pixels\r\nDisplay aspect ratio                     : 16:9\r\nFrame rate mode                          : Constant\r\nFrame rate                               : 25.000 fps\r\nColor space                              : YUV\r\nChroma subsampling                       : 4:2:0\r\nBit depth                                : 8 bits\r\nScan type                                : Progressive\r\nBits/(Pixel*Frame)                       : 0.088\r\nStream size                              : 327 MiB (90%)\r\nWriting library                          : x264 core 120\r\nEncoding settings                        : cabac=1 / ref=1 / deblock=1:0:0\r\nEncoded date                             : UTC 2016-08-18 18:11:51\r\nTagged date                              : UTC 2016-08-18 18:13:39\r\nColor range                              : Limited\r\nColor primaries                          : BT.601 NTSC\r\nTransfer characteristics                 : BT.709\r\nMatrix coefficients                      : BT.601\r\n\r\nAudio\r\nID                                       : 2\r\nFormat                                   : AAC\r\nFormat/Info                              : Advanced Audio Codec\r\nFormat profile                           : LC\r\nCodec ID                                 : 40\r\nDuration                                 : 50mn 52s\r\nBit rate mode                            : Variable\r\nBit rate                                 : 96.0 Kbps\r\nMaximum bit rate                         : 116 Kbps\r\nChannel(s)                               : 2 channels\r\nChannel positions                        : Front: L R\r\nSampling rate                            : 48.0 KHz\r\nCompression mode                         : Lossy\r\nStream size                              : 34.9 MiB (10%)\r\nTitle                                    : Stereo\r\nLanguage                                 : English","torrent":{"xt":"urn:btih:8add8223d4d1bbcc6603fae4981907b56c499c49","amp;dn":"Waking+the+Dead+S01","amp;tr":["udp%3A%2F%2Ftracker.leechers-paradise.org%3A6969","udp%3A%2F%2Fzer0day.ch%3A1337","udp%3A%2F%2Fopen.demonii.com%3A1337","udp%3A%2F%2Ftracker.coppersurfer.tk%3A6969","udp%3A%2F%2Fexodus.desync.com%3A6969"],"infoHash":"8add8223d4d1bbcc6603fae4981907b56c499c49","infoHashBuffer":{"type":"Buffer","data":[138,221,130,35,212,209,187,204,102,3,250,228,152,25,7,181,108,73,156,73]},"announce":[],"urlList":[]}}